HIERARCHY
ROOT Hips
{
	OFFSET 0.000000 0.000000 0.000000
	CHANNELS 6 Xposition Yposition Zposition Zrotation Yrotation Xrotation 
	JOINT LHipJoint
	{
		OFFSET 0.000000 0.000000 0.000000
		CHANNELS 3 Zrotation Yrotation Xrotation
		JOINT LeftUpLeg
		{
			OFFSET 1.363060 -1.794630 0.839290
			CHANNELS 3 Zrotation Yrotation Xrotation
			JOINT LeftLeg
			{
				OFFSET 2.448110 -6.726130 0.000000
				CHANNELS 3 Zrotation Yrotation Xrotation
				JOINT LeftFoot
				{
					OFFSET 2.562200 -7.039590 0.000000
					CHANNELS 3 Zrotation Yrotation Xrotation
					JOINT LeftToeBase
					{
						OFFSET 0.157640 -0.433110 2.322550
						CHANNELS 3 Zrotation Yrotation Xrotation
						End Site
						{
							OFFSET 0.000000 0.000000 0.000000
						}
					}
				}
			}
		}
	}
	JOINT RHipJoint
	{
		OFFSET 0.000000 0.000000 0.000000
		CHANNELS 3 Zrotation Yrotation Xrotation
		JOINT RightUpLeg
		{
			OFFSET -1.305520 -1.794630 0.839290
			CHANNELS 3 Zrotation Yrotation Xrotation
			JOINT RightLeg
			{
				OFFSET -2.542530 -6.985550 0.000000
				CHANNELS 3 Zrotation Yrotation Xrotation
				JOINT RightFoot
				{
					OFFSET -2.568260 -7.056230 0.000000
					CHANNELS 3 Zrotation Yrotation Xrotation
					JOINT RightToeBase
					{
						OFFSET -0.164730 -0.452590 2.363150
						CHANNELS 3 Zrotation Yrotation Xrotation
						End Site
						{
							OFFSET 0.000000 0.000000 0.000000
						}
					}
				}
			}
		}
	}
	JOINT LowerBack
	{
		OFFSET 0.000000 0.000000 0.000000
		CHANNELS 3 Zrotation Yrotation Xrotation
		JOINT Spine
		{
			OFFSET 0.028270 2.035590 -0.193380
			CHANNELS 3 Zrotation Yrotation Xrotation
			JOINT Spine1
			{
				OFFSET 0.056720 2.048850 -0.042750
				CHANNELS 3 Zrotation Yrotation Xrotation
				JOINT Neck
				{
					OFFSET 0.000000 0.000000 0.000000
					CHANNELS 3 Zrotation Yrotation Xrotation
					JOINT Neck1
					{
						OFFSET -0.054170 1.746240 0.172020
						CHANNELS 3 Zrotation Yrotation Xrotation
						JOINT Head
						{
							OFFSET 0.104070 1.761360 -0.123970
							CHANNELS 3 Zrotation Yrotation Xrotation
							End Site
							{
								OFFSET 0.000000 0.000000 0.000000
							}
						}
					}
				}
				JOINT LeftShoulder
				{
					OFFSET 0.000000 0.000000 0.000000
					CHANNELS 3 Zrotation Yrotation Xrotation
					JOINT LeftArm
					{
						OFFSET 3.362410 1.200890 -0.311210
						CHANNELS 3 Zrotation Yrotation Xrotation
						JOINT LeftForeArm
						{
							OFFSET 4.983000 -0.000000 -0.000000
							CHANNELS 3 Zrotation Yrotation Xrotation
							JOINT LeftHand
							{
								OFFSET 3.483560 -0.000000 -0.000000
								CHANNELS 3 Zrotation Yrotation Xrotation
								JOINT LeftFingerBase
								{
									OFFSET 0.000000 0.000000 0.000000
									CHANNELS 3 Zrotation Yrotation Xrotation
									JOINT LeftHandIndex1
									{
										OFFSET 0.715260 -0.000000 -0.000000
										CHANNELS 3 Zrotation Yrotation Xrotation
										End Site
										{
											OFFSET 0.000000 0.000000 0.000000
										}
									}
								}
								JOINT LThumb
								{
									OFFSET 0.000000 0.000000 0.000000
									CHANNELS 3 Zrotation Yrotation Xrotation
									End Site
									{
										OFFSET 0.000000 0.000000 0.000000
									}
								}
							}
						}
					}
				}
				JOINT RightShoulder
				{
					OFFSET 0.000000 0.000000 0.000000
					CHANNELS 3 Zrotation Yrotation Xrotation
					JOINT RightArm
					{
						OFFSET -3.136600 1.374050 -0.404650
						CHANNELS 3 Zrotation Yrotation Xrotation
						JOINT RightForeArm
						{
							OFFSET -5.241900 -0.000000 -0.000000
							CHANNELS 3 Zrotation Yrotation Xrotation
							JOINT RightHand
							{
								OFFSET -3.444170 -0.000000 -0.000000
								CHANNELS 3 Zrotation Yrotation Xrotation
								JOINT RightFingerBase
								{
									OFFSET 0.000000 0.000000 0.000000
									CHANNELS 3 Zrotation Yrotation Xrotation
									JOINT RightHandIndex1
									{
										OFFSET -0.622530 -0.000000 -0.000000
										CHANNELS 3 Zrotation Yrotation Xrotation
										End Site
										{
											OFFSET 0.000000 0.000000 0.000000
										}
									}
								}
								JOINT RThumb
								{
									OFFSET 0.000000 0.000000 0.000000
									CHANNELS 3 Zrotation Yrotation Xrotation
									End Site
									{
										OFFSET 0.000000 0.000000 0.000000
									}
								}
							}
						}
					}
				}
			}
		}
	}
}
MOTION
Frames: 7
Frame Time: 0.008333
1.629108 17.751740 6.313541 174.442854 -10.411854 -152.889392 -12.411141 -3.691419 3.169946 -6.643082 -4.622288 -20.397246 1.002617 11.424746 34.098727 8.332761 -9.507832 15.203362 0.267300 -3.325700 -9.187000 3.316704 5.539472 -5.052822 6.093147 -3.150968 -56.571568 -19.439598 -21.361521 83.872167 1.171483 -5.296349 13.112118 -1.501300 7.739200 -21.924600 -1.185271 -2.945081 15.802427 0.376521 -3.776316 -5.053206 3.315170 -1.975458 -6.762384 -3.253043 -2.637346 -20.927316 6.750074 -3.748269 -1.247187 1.555600 -1.992300 4.853200 5.416254 -4.498242 0.436875 -86.486338 -10.934365 46.151155 144.287830 -37.329890 -109.008370 -0.639518 -0.212055 -18.053959 19.415640 -8.162974 -2.959700 -7.125000 0.000000 0.000000 -4.897400 21.347000 2.788700 -6.752906 3.683244 -1.155719 85.681354 -41.376835 34.015570 -69.002412 56.990714 -51.351236 2.473275 1.055634 -14.173942 -27.729904 10.122733 -5.500800 7.125000 0.000000 0.000000 -2.434500 -19.062200 -1.507200 
1.610281 17.846762 5.604309 174.666355 -10.385159 -152.823214 -12.769111 -3.203906 4.151606 -5.554583 -5.241939 -18.386750 0.038159 10.541982 31.720364 8.060790 -8.834140 20.251612 0.431000 -4.212900 -11.676300 3.259300 5.578402 -5.512703 5.953008 -2.505909 -57.690049 -18.231989 -21.461014 80.185908 1.297349 -5.655444 12.849198 -1.590400 7.955000 -22.577400 -0.780121 -3.277538 15.212957 0.466227 -4.107504 -5.095485 3.463756 -2.201573 -6.630845 -3.023008 -2.242635 -21.253907 6.626813 -3.269834 -0.921584 1.454800 -1.754400 5.089500 5.431457 -4.503167 0.422758 -85.409723 -11.350206 46.216623 145.972339 -35.395532 -110.160740 -0.620182 -0.235874 -18.580537 19.227492 -8.349607 -2.986100 -7.125000 0.000000 0.000000 -5.041600 21.186700 2.889800 -6.776907 3.545864 -1.161706 84.872992 -43.359139 34.138770 -71.725893 57.857044 -53.971805 2.459685 1.028216 -13.661849 -27.480755 10.480278 -5.641900 7.125000 0.000000 0.000000 -2.211200 -18.685500 -1.387300 
1.592229 17.949094 4.884777 174.902077 -10.231129 -152.797998 -13.161034 -2.701508 5.194115 -4.445159 -5.946611 -16.454495 -0.929287 9.584346 29.196387 7.670106 -7.742939 26.321468 0.565700 -4.817100 -13.387500 3.267247 5.637167 -5.984903 5.794258 -1.866490 -58.384262 -16.807172 -21.456862 75.945607 1.418765 -6.050783 12.783139 -1.675500 8.154600 -23.184700 -0.410471 -3.530850 14.641890 0.539180 -4.346498 -5.130073 3.575828 -2.384199 -6.514834 -2.835713 -1.898689 -21.532136 6.513234 -2.843482 -0.597271 1.373900 -1.538900 5.324700 5.425466 -4.515358 0.411728 -84.288446 -11.516141 46.245244 147.337968 -33.730493 -111.064308 -0.593491 -0.257082 -18.877004 18.982572 -8.585717 -3.017200 -7.125000 0.000000 0.000000 -5.232100 20.980900 3.024300 -6.796735 3.418093 -1.172283 84.262555 -45.143855 33.987302 -74.181898 58.627601 -56.300774 2.446729 0.991826 -13.137529 -27.260820 10.773736 -5.755300 7.125000 0.000000 0.000000 -2.012700 -18.368600 -1.276700 
1.575063 18.054637 4.157271 175.134999 -9.991065 -152.810926 -13.620644 -2.151164 6.281740 -3.307031 -6.771004 -14.595030 -1.780185 8.616308 26.565417 7.139447 -5.891554 33.222870 0.641200 -5.122800 -14.259200 3.340347 5.710143 -6.473557 5.617988 -1.279654 -58.683930 -15.191882 -21.319791 71.247193 1.521017 -6.453881 12.918637 -1.753000 8.331400 -23.725200 -0.068915 -3.719458 14.096482 0.594393 -4.508037 -5.157831 3.651753 -2.532111 -6.422577 -2.703434 -1.608839 -21.750694 6.417447 -2.469805 -0.281949 1.321600 -1.345600 5.551000 5.401738 -4.537038 0.403237 -83.195643 -11.441511 46.224175 148.404108 -32.378535 -111.746698 -0.562410 -0.273101 -18.925351 18.706648 -8.854911 -3.051700 -7.125000 0.000000 0.000000 -5.448700 20.742200 3.180000 -6.816582 3.299017 -1.187386 83.888363 -46.717707 33.567335 -76.337588 59.297140 -58.308436 2.435198 0.946336 -12.620308 -27.074374 11.034612 -5.861400 7.125000 0.000000 0.000000 -1.839700 -18.073500 -1.178800 
1.558894 18.159184 3.424006 175.346942 -9.720474 -152.855144 -14.166256 -1.502214 7.373276 -2.141733 -7.720279 -12.816461 -2.364101 7.769046 23.936874 6.592948 -3.098990 40.504343 0.597700 -4.949400 -13.764200 3.472573 5.780764 -6.971407 5.433878 -0.784692 -58.640158 -13.424448 -21.026056 66.206175 1.593403 -6.853658 13.259393 -1.830100 8.502800 -24.252000 0.253576 -3.867685 13.580012 0.634603 -4.618352 -5.179963 3.675758 -2.663641 -6.346187 -2.404999 -1.935513 -21.910668 6.351326 -2.003080 0.049841 1.290600 -0.702700 5.775100 5.381752 -4.567934 0.394325 -82.179358 -11.148839 46.117756 149.185558 -31.368261 -112.233297 -0.529620 -0.282641 -18.727941 18.433531 -9.134402 -3.088000 -7.125000 0.000000 0.000000 -5.665500 20.489900 3.340000 -6.821517 3.184947 -1.208380 83.751597 -48.058622 32.919156 -78.205890 59.868792 -60.014410 2.424363 0.897767 -12.142875 -26.922201 11.247985 -5.950800 7.125000 0.000000 0.000000 -1.695300 -17.822300 -1.095600 
1.543832 18.257750 2.688194 175.502027 -9.483919 -152.930004 -14.769948 -0.720110 8.413225 -0.987736 -8.844650 -11.103765 -2.618437 7.173226 21.479150 6.323612 0.364510 47.445224 0.428500 -4.201000 -11.642900 3.643858 5.829174 -7.465285 5.249645 -0.430088 -58.318113 -11.554039 -20.557054 60.946461 1.621245 -7.231909 13.811070 -1.906300 8.668200 -24.762700 0.557457 -4.000824 13.106499 0.660984 -4.709298 -5.198118 3.685024 -2.795144 -6.293003 -2.376387 -1.687125 -22.045272 6.273149 -1.728149 0.349104 1.278600 -0.589400 5.988100 5.335692 -4.617602 0.386089 -81.263250 -10.667027 45.898901 149.693079 -30.717264 -112.543872 -0.497009 -0.287212 -18.281338 18.216784 -9.377176 -3.119900 -7.125000 0.000000 0.000000 -5.842800 20.270600 3.474500 -6.843753 3.068340 -1.228493 83.822642 -49.148688 32.101057 -79.825673 60.350192 -61.460542 2.414123 0.850334 -11.757870 -26.805438 11.414427 -6.024100 7.125000 0.000000 0.000000 -1.581000 -17.616100 -1.028800 
1.529767 18.341697 1.954376 175.564286 -9.278180 -153.037080 -15.340018 0.142360 9.356182 0.031863 -10.233550 -9.430191 -2.653288 6.855647 19.423926 6.561110 3.747453 53.277972 0.221000 -3.026400 -8.352100 3.818980 5.860746 -7.946590 5.055699 -0.228872 -57.800442 -9.652811 -19.903319 55.629701 1.596482 -7.581765 14.561550 -1.986700 8.838300 -25.290900 0.801534 -4.127843 12.697496 0.676529 -4.799569 -5.214252 3.665283 -2.933878 -6.249122 -2.358949 -1.471426 -22.182620 6.188682 -1.489214 0.648930 1.264700 -0.493700 6.208100 5.285574 -4.678970 0.373791 -80.452309 -10.039410 45.536631 149.925763 -30.437726 -112.689960 -0.465488 -0.287193 -17.583175 18.084461 -9.564796 -3.147700 -7.125000 0.000000 0.000000 -5.959900 20.101000 3.567800 -6.863258 2.952587 -1.246992 84.070205 -49.960246 31.165241 -81.244806 60.748650 -62.698471 2.403303 0.808509 -11.516042 -26.706661 11.531499 -6.075400 7.125000 0.000000 0.000000 -1.484700 -17.462000 -0.971100 
